<mxfile host="app.diagrams.net" modified="2023-10-16T13:04:55.274Z" agent="Mozilla/5.0 (Windows NT 10.0; Win64; x64; rv:109.0) Gecko/20100101 Firefox/118.0" etag="13pA_90KwjO7ekZiCsXm" version="22.0.4" type="github">
  <diagram name="Page-1" id="KykUfuTgEA3VqeWH1Y7W">
    <mxGraphModel dx="1326" dy="782" grid="0" gridSize="10" guides="1" tooltips="1" connect="1" arrows="1" fold="1" page="1" pageScale="1" pageWidth="1100" pageHeight="850" math="0" shadow="0">
      <root>
        <mxCell id="0" />
        <mxCell id="1" parent="0" />
        <mxCell id="aNnHEHxiOUUDmJkkjf3C-24" style="edgeStyle=orthogonalEdgeStyle;rounded=0;orthogonalLoop=1;jettySize=auto;html=1;" edge="1" parent="1" source="aNnHEHxiOUUDmJkkjf3C-4">
          <mxGeometry relative="1" as="geometry">
            <mxPoint x="560" y="414" as="targetPoint" />
          </mxGeometry>
        </mxCell>
        <mxCell id="aNnHEHxiOUUDmJkkjf3C-4" value="&lt;b&gt;&lt;font style=&quot;font-size: 14px;&quot;&gt;Web-app&lt;/font&gt;&lt;/b&gt;" style="image;aspect=fixed;html=1;points=[];align=center;fontSize=12;image=img/lib/azure2/app_services/App_Service_Domains.svg;" vertex="1" parent="1">
          <mxGeometry x="328" y="193" width="121.25" height="97" as="geometry" />
        </mxCell>
        <mxCell id="aNnHEHxiOUUDmJkkjf3C-6" style="edgeStyle=orthogonalEdgeStyle;rounded=0;orthogonalLoop=1;jettySize=auto;html=1;" edge="1" parent="1" source="aNnHEHxiOUUDmJkkjf3C-5">
          <mxGeometry relative="1" as="geometry">
            <mxPoint x="326" y="242" as="targetPoint" />
          </mxGeometry>
        </mxCell>
        <mxCell id="aNnHEHxiOUUDmJkkjf3C-5" value="User" style="sketch=0;outlineConnect=0;fontColor=#232F3E;gradientColor=none;strokeColor=#232F3E;fillColor=#ffffff;dashed=0;verticalLabelPosition=bottom;verticalAlign=top;align=center;html=1;fontSize=12;fontStyle=0;aspect=fixed;shape=mxgraph.aws4.resourceIcon;resIcon=mxgraph.aws4.user;" vertex="1" parent="1">
          <mxGeometry x="70" y="212" width="60" height="60" as="geometry" />
        </mxCell>
        <mxCell id="aNnHEHxiOUUDmJkkjf3C-12" style="edgeStyle=orthogonalEdgeStyle;rounded=0;orthogonalLoop=1;jettySize=auto;html=1;" edge="1" parent="1">
          <mxGeometry relative="1" as="geometry">
            <mxPoint x="388.6300000000001" y="333" as="targetPoint" />
            <mxPoint x="388.5999999999999" y="465" as="sourcePoint" />
          </mxGeometry>
        </mxCell>
        <mxCell id="aNnHEHxiOUUDmJkkjf3C-9" value="&lt;b&gt;&lt;font style=&quot;font-size: 14px;&quot;&gt;AWS&lt;br&gt;Amplify&lt;/font&gt;&lt;/b&gt;" style="sketch=0;points=[[0,0,0],[0.25,0,0],[0.5,0,0],[0.75,0,0],[1,0,0],[0,1,0],[0.25,1,0],[0.5,1,0],[0.75,1,0],[1,1,0],[0,0.25,0],[0,0.5,0],[0,0.75,0],[1,0.25,0],[1,0.5,0],[1,0.75,0]];outlineConnect=0;fontColor=#232F3E;fillColor=#DD344C;strokeColor=#ffffff;dashed=0;verticalLabelPosition=bottom;verticalAlign=top;align=center;html=1;fontSize=12;fontStyle=0;aspect=fixed;shape=mxgraph.aws4.resourceIcon;resIcon=mxgraph.aws4.amplify;" vertex="1" parent="1">
          <mxGeometry x="349.63" y="429" width="78" height="78" as="geometry" />
        </mxCell>
        <mxCell id="aNnHEHxiOUUDmJkkjf3C-19" style="edgeStyle=orthogonalEdgeStyle;rounded=0;orthogonalLoop=1;jettySize=auto;html=1;" edge="1" parent="1" source="aNnHEHxiOUUDmJkkjf3C-13">
          <mxGeometry relative="1" as="geometry">
            <mxPoint x="753" y="652" as="targetPoint" />
          </mxGeometry>
        </mxCell>
        <mxCell id="aNnHEHxiOUUDmJkkjf3C-21" style="edgeStyle=orthogonalEdgeStyle;rounded=0;orthogonalLoop=1;jettySize=auto;html=1;" edge="1" parent="1" target="aNnHEHxiOUUDmJkkjf3C-13">
          <mxGeometry relative="1" as="geometry">
            <mxPoint x="560" y="558" as="sourcePoint" />
          </mxGeometry>
        </mxCell>
        <mxCell id="aNnHEHxiOUUDmJkkjf3C-13" value="&lt;b&gt;&lt;font style=&quot;font-size: 14px;&quot;&gt;Lambda&lt;/font&gt;&lt;/b&gt;" style="outlineConnect=0;dashed=0;verticalLabelPosition=bottom;verticalAlign=top;align=center;html=1;shape=mxgraph.aws3.lambda;fillColor=#F58534;gradientColor=none;aspect=fixed;" vertex="1" parent="1">
          <mxGeometry x="521" y="613" width="78" height="78" as="geometry" />
        </mxCell>
        <mxCell id="aNnHEHxiOUUDmJkkjf3C-14" value="&lt;b&gt;&lt;font style=&quot;font-size: 14px;&quot;&gt;API&lt;br&gt;Gateway&lt;/font&gt;&lt;/b&gt;" style="outlineConnect=0;dashed=0;verticalLabelPosition=bottom;verticalAlign=top;align=center;html=1;shape=mxgraph.aws3.api_gateway;fillColor=#D9A741;gradientColor=none;" vertex="1" parent="1">
          <mxGeometry x="521" y="432" width="78" height="82" as="geometry" />
        </mxCell>
        <mxCell id="aNnHEHxiOUUDmJkkjf3C-18" value="&lt;b&gt;&lt;font style=&quot;font-size: 14px;&quot;&gt;DynamoDB&lt;/font&gt;&lt;/b&gt;" style="outlineConnect=0;dashed=0;verticalLabelPosition=bottom;verticalAlign=top;align=center;html=1;shape=mxgraph.aws3.dynamo_db;fillColor=#2E73B8;gradientColor=none;" vertex="1" parent="1">
          <mxGeometry x="768" y="612" width="72" height="81" as="geometry" />
        </mxCell>
        <mxCell id="aNnHEHxiOUUDmJkkjf3C-22" value="" style="sketch=0;outlineConnect=0;fontColor=#232F3E;gradientColor=none;fillColor=#DD344C;strokeColor=none;dashed=0;verticalLabelPosition=bottom;verticalAlign=top;align=center;html=1;fontSize=12;fontStyle=0;aspect=fixed;pointerEvents=1;shape=mxgraph.aws4.identity_access_management_iam_roles_anywhere;" vertex="1" parent="1">
          <mxGeometry x="665" y="612" width="38" height="38" as="geometry" />
        </mxCell>
        <mxCell id="aNnHEHxiOUUDmJkkjf3C-25" value="AWS Cloud" style="points=[[0,0],[0.25,0],[0.5,0],[0.75,0],[1,0],[1,0.25],[1,0.5],[1,0.75],[1,1],[0.75,1],[0.5,1],[0.25,1],[0,1],[0,0.75],[0,0.5],[0,0.25]];outlineConnect=0;gradientColor=none;html=1;whiteSpace=wrap;fontSize=12;fontStyle=0;container=1;pointerEvents=0;collapsible=0;recursiveResize=0;shape=mxgraph.aws4.group;grIcon=mxgraph.aws4.group_aws_cloud_alt;strokeColor=#232F3E;fillColor=none;verticalAlign=top;align=left;spacingLeft=30;fontColor=#232F3E;dashed=0;" vertex="1" parent="1">
          <mxGeometry x="239" y="381" width="742" height="399" as="geometry" />
        </mxCell>
      </root>
    </mxGraphModel>
  </diagram>
</mxfile>
